<?xml version="1.0" encoding="utf-8"?>
<!-- Generator: Adobe Illustrator 26.5.0, SVG Export Plug-In . SVG Version: 6.00 Build 0)  -->
<svg version="1.1" id="Left" xmlns="http://www.w3.org/2000/svg" xmlns:xlink="http://www.w3.org/1999/xlink" x="0px" y="0px"
	 viewBox="0 0 991.6 1391.9" style="enable-background:new 0 0 991.6 1391.9;" xml:space="preserve">
<style type="text/css">
	.st0{fill:#491358;}
	.st1{fill:#FF1957;}
	.st2{fill:#491457;}
	.st3{fill:none;stroke:#491457;stroke-width:13;stroke-miterlimit:10;}
	.st4{fill:#2FF156;stroke:#000000;stroke-width:5;stroke-miterlimit:10;}
	.st5{fill:#74B27D;}
	.st6{fill:none;stroke:#000000;stroke-width:5;stroke-miterlimit:10;}
	.st7{fill:#FFFFFF;}
	.st8{fill:#F9F16D;stroke:#000000;stroke-width:5;stroke-miterlimit:10;}
	.st9{fill:#D8D395;}
	.st10{fill:#FF1957;stroke:#000000;stroke-width:5;stroke-miterlimit:10;}
	.st11{fill:#AD2355;}
	.st12{fill:#6B215A;}
	.st13{fill:#F2F4E7;}
	.st14{fill:#62E2DA;}
	.st15{fill:#02DBFC;stroke:#000000;stroke-width:8;stroke-miterlimit:10;}
	.st16{fill:#06B2D8;}
	.st17{fill:#79DCE2;stroke:#F2F4E7;stroke-width:2;stroke-miterlimit:10;}
	.st18{fill:#79DCE2;stroke:#F2F4E7;stroke-width:3;stroke-miterlimit:10;}
	.st19{fill:#02DBFC;stroke:#000000;stroke-miterlimit:10;}
	.st20{fill:#2FF156;stroke:#000000;stroke-width:0.5;stroke-miterlimit:10;}
	.st21{fill:#FA8D56;stroke:#000000;stroke-width:0.75;stroke-miterlimit:10;}
	.st22{fill:#F9F16D;}
	.st23{fill:#0C1957;}
	.st24{fill:#2A4E61;stroke:#1D1D1B;stroke-linecap:round;stroke-miterlimit:10;}
	.st25{fill:#4C124B;}
	.st26{fill:#FD1956;stroke:#0C1957;stroke-width:5;stroke-miterlimit:10;}
	.st27{fill:#FD1956;stroke:#0C1957;stroke-miterlimit:10;}
	.st28{fill:none;stroke:#0C1957;stroke-width:8;stroke-linecap:round;stroke-miterlimit:10;}
	.st29{fill:#02B2D7;}
	.st30{fill:#00D8FD;}
	.st31{fill:#00E6FE;}
	.st32{fill:#FA8F7A;}
</style>
<g id="bg_gauche">
	<g id="_1">
		<path class="st0" d="M871,78.9H24.8C11.1,78.9,0,90,0,103.8v1232.3c0,30.8,25,55.8,55.8,55.8h822.4l-6.4-1159.3L871,78.9L871,78.9
			z"/>
	</g>
	<g id="_1-2">
		<path class="st1" d="M876.8,20.1H27.3C12.2,20.1,0,32.3,0,47.3v1227.5c0,32.2,26.1,58.3,58.3,58.3H884l-6.4-1159.3l0.2-153.7
			L876.8,20.1z"/>
	</g>
	<polygon id="_2" class="st2" points="877.5,178.6 577.6,178.6 238.9,373.8 0.7,373.8 0.7,423.8 240.4,424 587.6,226 877.5,226 	"/>
	<path class="st3" d="M818.7,220.3v1077.7H79.8c-26.2,0-47.4-21.3-47.3-47.5L35.2,414"/>
</g>
<g id="btn_vert">
	<circle class="st4" cx="485" cy="91.8" r="28"/>
	<path class="st5" d="M482.1,68.9c23,7.2,30.1,34.4,2.9,40.2c-8.6,1.4-17.2-1.4-17.2-1.4s28.7,25.8,43.8-12.2
		C509.4,57.4,482.1,68.9,482.1,68.9L482.1,68.9z"/>
	<circle class="st6" cx="485" cy="91.8" r="28"/>
	<ellipse transform="matrix(0.5 -0.866 0.866 0.5 167.0422 451.5209)" class="st7" cx="474.5" cy="81.1" rx="5.4" ry="3.6"/>
</g>
<g id="btn_jaune">
	<circle class="st8" cx="411.8" cy="91.8" r="28"/>
	<path class="st9" d="M409,68.9c23,7.2,30.1,34.4,2.9,40.2c-8.6,1.4-17.2-1.4-17.2-1.4s28.7,25.8,43.8-12.2
		C436.2,57.4,409,68.9,409,68.9L409,68.9z"/>
	<circle class="st6" cx="411.8" cy="91.8" r="28"/>
	<ellipse transform="matrix(0.5 -0.866 0.866 0.5 131.1583 389.3829)" class="st7" cx="402.8" cy="81.1" rx="5.4" ry="3.6"/>
</g>
<g id="btn_rouge">
	<circle class="st10" cx="335.8" cy="91.8" r="28"/>
	<path class="st11" d="M332.9,68.9c23,7.2,30.1,34.4,2.9,40.2c-8.6,1.4-17.2-1.4-17.2-1.4s28.7,25.8,43.8-12.2
		C360.2,57.4,332.9,68.9,332.9,68.9L332.9,68.9z"/>
	<circle class="st6" cx="335.8" cy="91.8" r="28"/>
	<ellipse transform="matrix(0.5 -0.866 0.866 0.5 92.4173 322.2781)" class="st7" cx="325.3" cy="81.1" rx="5.4" ry="3.6"/>
</g>
<g id="lentille_bleu">
	<path id="Ombre" class="st12" d="M294.2,202.3c0,72.9-44.5,132-132,132c-94.7,0-132-59.1-132-132S95,66,167.9,66
		C233.9,66,294.2,129.4,294.2,202.3L294.2,202.3z"/>
	<circle class="st13" cx="152.8" cy="197.3" r="132"/>
	<path class="st14" d="M20.8,197.3H43c0,0-4.3,109.8,109.1,117S264,195.2,264,195.2h20.4c0,15.8,4,134.9-130.9,134.9
		S20.8,197.3,20.8,197.3z"/>
	<circle class="st15" cx="155" cy="195.2" r="86.1"/>
	<path class="st16" d="M113.4,261.9c10.6,0,51.5,10.6,87.9-33.4s13.6-84.9,13.6-84.9s34.9,60.6,1.5,98.5
		C183.1,280,142.2,272.5,113.4,261.9z"/>
	
		<ellipse transform="matrix(0.8076 -0.5898 0.5898 0.8076 -89.5562 129.6335)" class="st17" cx="153.9" cy="202.1" rx="9.5" ry="9.5"/>
	
		<ellipse transform="matrix(0.8076 -0.5898 0.5898 0.8076 -69.9461 103.4673)" class="st18" cx="123.6" cy="158.9" rx="33.7" ry="20.2"/>
</g>
<g id="bouton_bleu_gauche">
	<path class="st12" d="M208.1,1051.1c0,28.1-22.8,50.9-50.9,50.9s-62.4-17.8-62.4-45.9s31-62.8,58.8-58.8
		C183.7,1001.6,208.1,1023,208.1,1051.1L208.1,1051.1z"/>
	<circle class="st19" cx="140.6" cy="1046.1" r="50.9"/>
</g>
<g id="Bouton_vert">
	<path id="vert_ombre_bouton" class="st12" d="M254.4,1044.7h85.3c5,0,9,4,9,9v7.8c0,5-4,9-9,9h-85.3c-5,0-9-4-9-9v-7.8
		C245.4,1048.7,249.4,1044.7,254.4,1044.7z"/>
	<path id="bouton_vert" class="st20" d="M243.6,1033.9h85.3c5,0,9,4,9,9v7.8c0,5-4,9-9,9h-85.3c-5,0-9-4-9-9v-7.8
		C234.6,1037.9,238.6,1033.9,243.6,1033.9z"/>
</g>
<g id="bouton_orange">
	<path id="orange_ombre_bouton" class="st12" d="M390.7,1044.7H476c5,0,9,4,9,9v7.8c0,5-4,9-9,9h-85.3c-5,0-9-4-9-9v-7.8
		C381.7,1048.7,385.7,1044.7,390.7,1044.7z"/>
	<path id="bouton_orange-2" class="st21" d="M379.9,1033.9h85.3c5,0,9,4,9,9v7.8c0,5-4,9-9,9h-85.3c-5,0-9-4-9-9v-7.8
		C370.9,1037.9,375,1033.9,379.9,1033.9z"/>
</g>
<path id="Gros_pad_jaune" class="st22" d="M99.9,1144.4h328.2c4.9,0,8.8,3.9,8.8,8.8v75.6c0,4.9-3.9,8.8-8.8,8.8H99.9
	c-4.9,0-8.8-3.9-8.8-8.8v-75.6C91.1,1148.3,95.1,1144.4,99.9,1144.4z"/>
<g id="croix">
	<path id="ombre_horizontal" class="st12" d="M753.4,1115.7v58.9c0,4.3-3.5,7.8-7.8,7.8H560.3c-4.3,0-7.8-3.5-7.8-7.8v-58.9
		c0-4.3,3.5-7.8,7.8-7.8h185.2C749.9,1107.8,753.4,1111.3,753.4,1115.7z"/>
	<path id="ombre_verticale" class="st12" d="M623.5,1044.7h58.9c4.3,0,7.8,3.5,7.8,7.8v185.2c0,4.3-3.5,7.8-7.8,7.8h-58.9
		c-4.3,0-7.8-3.5-7.8-7.8v-185.2C615.6,1048.2,619.1,1044.7,623.5,1044.7z"/>
	<path id="horizontal" class="st23" d="M741.9,1104.2v58.9c0,4.3-3.5,7.8-7.8,7.8H548.8c-4.3,0-7.8-3.5-7.8-7.8v-58.9
		c0-4.3,3.5-7.8,7.8-7.8H734C738.4,1096.3,741.9,1099.8,741.9,1104.2z"/>
	<path id="vertical" class="st23" d="M612,1033.2h58.9c4.3,0,7.8,3.5,7.8,7.8v185.2c0,4.3-3.5,7.8-7.8,7.8H612
		c-4.3,0-7.8-3.5-7.8-7.8V1041C604.1,1036.7,607.6,1033.2,612,1033.2z"/>
	<polygon class="st24" points="640.7,1049.3 620.6,1072.3 660.8,1072.3 	"/>
	<polygon class="st24" points="725.7,1132.9 702.8,1112.8 702.8,1153 	"/>
	<polygon class="st24" points="642.2,1217.9 662.2,1195 622.1,1195 	"/>
	<polygon class="st24" points="557.2,1134.3 580.1,1154.4 580.1,1114.3 	"/>
</g>
<g id="compo_pokémon">
	<path id="_pokémon_ombre" class="st25" d="M812.2,448.3v470.9c0,30.5-24.7,55.1-55.1,55.1H213.8c-51.7-21.5-90.4-41.6-107.6-87.5
		V448.3c0-30.5,24.7-55.1,55.1-55.1h595.8C787.5,393.2,812.2,417.9,812.2,448.3z"/>
	<path id="cadre_pokémon" class="st13" d="M799.3,435.4v470.9c0,30.5-24.7,55.1-55.1,55.1H200.9c-51.7-21.5-90.4-41.6-107.6-87.5
		V435.4c0-30.5,24.7-55.1,55.1-55.1h595.7C774.6,380.3,799.3,404.9,799.3,435.4z"/>
	<circle class="st26" cx="238.2" cy="915.5" r="28"/>
	<circle class="st27" cx="417.6" cy="398.9" r="10.8"/>
	<circle class="st27" cx="452" cy="398.9" r="10.8"/>
	<g id="micro">
		<line class="st28" x1="541.7" y1="893.3" x2="765.6" y2="893.3"/>
		<line class="st28" x1="542.4" y1="915.5" x2="766.3" y2="915.5"/>
		<line class="st28" x1="542.4" y1="938.5" x2="766.3" y2="938.5"/>
	</g>
	<path id="ombre_haut_ecran" class="st29" d="M126.8,434.8h641.8c6.6,0,12,5.4,12,12v418c0,6.6-5.4,12-12,12H126.8
		c-6.6,0-12-5.4-12-12v-418C114.8,440.2,120.2,434.8,126.8,434.8z"/>
	<path id="ecran" class="st30" d="M131,456.3h632c9,0,16.2,7.3,16.2,16.2v383.7c0,9-7.3,16.2-16.2,16.2H131c-9,0-16.2-7.3-16.2-16.2
		V472.5C114.8,463.6,122.1,456.3,131,456.3z"/>
	<path id="reflet_2" class="st31" d="M483.3,872.5l295.9-322.1v-93.8c0-0.2-0.1-0.3-0.3-0.3h-60.4L336.2,872.5H483.3L483.3,872.5z"
		/>
	<polygon id="reflet_1" class="st31" points="114.8,707.2 393.4,457.8 216.9,457.8 114.8,549.2 	"/>
</g>
<g id="barre_milieu">
	<polygon class="st0" points="877.1,20 894.7,8.5 897.2,1302.9 877.1,1320.1 	"/>
	<polygon class="st32" points="896.9,1308.7 921.3,1294.3 918.4,0 894.7,8.5 	"/>
	<polygon class="st1" points="921.3,1294.3 945.7,1297.2 947.1,0 918.4,0 	"/>
	<path class="st0" d="M933.5,1292.9c31.3,0,46.7,12.2,46.7,27.3c0,17.2-15.4,27.3-46.7,27.3s-56.7-12.2-56.7-27.3
		S902.1,1292.9,933.5,1292.9z"/>
</g>
<path class="st0" d="M957.4,0h-13.1v1343.6v3.4c36.5-2,47.1-17.7,47.1-32.2V34C991.5,15.2,976.2,0,957.4,0z"/>
</svg>
