<?xml version="1.0" encoding="UTF-8"?>
<svg id="Calque_1" data-name="Calque 1" xmlns="http://www.w3.org/2000/svg" xmlns:xlink="http://www.w3.org/1999/xlink" viewBox="0 0 931.31 1218.3">
  <defs>
    <style>
      .cls-1 {
        fill: #f9f16d;
      }

      .cls-1, .cls-2 {
        stroke: #000;
        stroke-width: 5px;
      }

      .cls-1, .cls-2, .cls-3 {
        stroke-miterlimit: 10;
      }

      .cls-4 {
        fill: #fff;
      }

      .cls-5 {
        fill: #f2f4e7;
      }

      .cls-6 {
        fill: #6b215a;
      }

      .cls-7 {
        fill: #d8d395;
      }

      .cls-8 {
        stroke: #491457;
        stroke-linejoin: round;
        stroke-width: 11px;
      }

      .cls-8, .cls-2, .cls-9, .cls-3 {
        fill: none;
      }

      .cls-10 {
        fill: #0c1957;
      }

      .cls-11 {
        clip-path: url(#clippath);
      }

      .cls-12 {
        fill: #491457;
      }

      .cls-13 {
        fill: #fd1956;
      }

      .cls-14 {
        fill: #030651;
      }

      .cls-15 {
        fill: #2b4a63;
      }

      .cls-16 {
        fill: #4d1656;
      }

      .cls-3 {
        stroke: #0c1957;
        stroke-linecap: round;
        stroke-width: 10px;
      }
    </style>
    <clipPath id="clippath">
      <rect class="cls-9" x="120.54" y="351.19" width="693.09" height="337.6" rx="17.97" ry="17.97"/>
    </clipPath>
  </defs>
  <g id="bg_droit" data-name="bg droit">
    <path id="ombre_bg_droit" data-name="ombre bg droit" class="cls-12" d="M5.74,73.19H289.87l332.62,187.94c13.36,7.55,28.45,11.52,43.8,11.52h265.02v886.05c0,32.91-26.68,59.6-59.6,59.6H5.74V73.19Z"/>
    <path id="bg_droit-2" data-name="bg droit-2" class="cls-13" d="M5.74,0H286.3c2.33,0,4.63,.6,6.66,1.75l329.52,186.19c13.36,7.55,28.45,11.52,43.8,11.52h256.52c4.69,0,8.49,3.8,8.49,8.49v937.16H5.74V0Z"/>
    <path class="cls-8" d="M284.13,57.4l348.7,196.59,255.43,2.87v804.28c0,24.18-19.61,43.79-43.79,43.79H53.1V97.65c0-22.23,18.02-40.25,40.25-40.25h190.78Z"/>
    <polyline class="cls-8" points="284.13 57.4 636.41 256.15 888.25 256.86"/>
  </g>
  <rect class="cls-6" width="22.96" height="1145.11"/>
  <g id="screen_info" data-name="screen info">
    <rect class="cls-14" x="120.54" y="297.04" width="693.09" height="391.75" rx="17.97" ry="17.97"/>
    <rect class="cls-10" x="120.54" y="351.19" width="693.09" height="337.6" rx="17.97" ry="17.97"/>
    <g class="cls-11">
      <g>
        <polygon class="cls-15" points="644.3 341.63 493.63 691.98 638.56 688.79 790.67 344.82 644.3 341.63"/>
        <polygon class="cls-15" points="449.15 341.63 298.47 691.98 325.74 688.79 477.85 344.82 449.15 341.63"/>
        <polygon class="cls-15" points="299.91 341.63 149.24 691.98 249.69 688.79 401.79 344.82 299.91 341.63"/>
      </g>
    </g>
  </g>
  <rect id="Gros_pad_jaune-2" data-name="Gros pad jaune-2" class="cls-10" x="493.63" y="921.26" width="285.56" height="93.27" rx="8.82" ry="8.82"/>
  <rect id="Gros_pad_jaune-3" data-name="Gros pad jaune-3" class="cls-10" x="130.58" y="921.26" width="288.43" height="93.27" rx="8.82" ry="8.82"/>
  <g id="bouton_blanc_droit" data-name="bouton blanc droit">
    <rect id="Gros_pad_jaune-4" data-name="Gros pad jaune-4" class="cls-16" x="139.91" y="767" width="208.07" height="61.7" rx="8.82" ry="8.82"/>
    <rect id="Gros_pad_jaune-5" data-name="Gros pad jaune-5" class="cls-5" x="129.15" y="756.24" width="208.07" height="61.7" rx="8.82" ry="8.82"/>
  </g>
  <g id="bouton_blanc_gauche" data-name="bouton blanc gauche">
    <rect id="Gros_pad_jaune-6" data-name="Gros pad jaune-6" class="cls-16" x="373.81" y="767" width="208.07" height="61.7" rx="8.82" ry="8.82"/>
    <rect id="Gros_pad_jaune-7" data-name="Gros pad jaune-7" class="cls-5" x="363.05" y="756.24" width="208.07" height="61.7" rx="8.82" ry="8.82"/>
  </g>
  <g id="btn_jaune-2" data-name="btn jaune-2">
    <circle class="cls-1" cx="780.63" cy="799.28" r="40.18"/>
    <path class="cls-7" d="M776.51,766.32c32.97,10.3,43.27,49.45,4.12,57.69-12.36,2.06-24.73-2.06-24.73-2.06,0,0,41.21,37.09,62.84-17.51-3.09-54.6-42.24-38.12-42.24-38.12h.01Z"/>
    <circle class="cls-2" cx="780.63" cy="799.28" r="40.18"/>
    <ellipse class="cls-4" cx="764.84" cy="783.5" rx="5.74" ry="4.3" transform="translate(-296.11 1054.12) rotate(-60)"/>
  </g>
  <line class="cls-3" x1="761.97" y1="720.36" x2="820.81" y2="720.36"/>
  <line class="cls-3" x1="681.61" y1="720.36" x2="740.45" y2="720.36"/>
</svg>