<?xml version="1.0" encoding="UTF-8"?>
<svg id="pokédex" xmlns="http://www.w3.org/2000/svg" xmlns:xlink="http://www.w3.org/1999/xlink" viewBox="0 0 1920 1394.8">
  <defs>
    <style>
      .cls-1, .cls-2, .cls-3, .cls-4, .cls-5, .cls-6, .cls-7, .cls-8, .cls-9, .cls-10, .cls-11, .cls-12, .cls-13, .cls-14, .cls-15, .cls-16 {
        stroke-miterlimit: 10;
      }

      .cls-1, .cls-2, .cls-6, .cls-7, .cls-8, .cls-10, .cls-12, .cls-16 {
        stroke: #000;
      }

      .cls-1, .cls-2, .cls-7, .cls-8, .cls-14 {
        stroke-width: 5px;
      }

      .cls-1, .cls-17 {
        fill: #ff1957;
      }

      .cls-18 {
        fill: #fa8f7a;
      }

      .cls-2, .cls-19 {
        fill: #f9f16d;
      }

      .cls-20 {
        fill: #fff;
      }

      .cls-21 {
        fill: #00d8fd;
      }

      .cls-22 {
        fill: #06b2d8;
      }

      .cls-3, .cls-4, .cls-23, .cls-8, .cls-24, .cls-13 {
        fill: none;
      }

      .cls-3, .cls-9, .cls-13, .cls-14 {
        stroke: #0c1957;
      }

      .cls-3, .cls-11, .cls-13 {
        stroke-linecap: round;
      }

      .cls-3, .cls-16 {
        stroke-width: 8px;
      }

      .cls-4 {
        stroke-width: 13px;
      }

      .cls-4, .cls-23 {
        stroke: #491457;
      }

      .cls-25 {
        fill: #74b27d;
      }

      .cls-26 {
        fill: #f2f4e7;
      }

      .cls-27 {
        fill: #6b215a;
      }

      .cls-28 {
        fill: #491358;
      }

      .cls-5 {
        stroke-width: 3px;
      }

      .cls-5, .cls-15 {
        fill: #79dce2;
        stroke: #f2f4e7;
      }

      .cls-29 {
        fill: #4c124b;
      }

      .cls-30 {
        fill: #ad2355;
      }

      .cls-31 {
        clip-path: url(#clippath-1);
      }

      .cls-32 {
        fill: #d8d395;
      }

      .cls-23 {
        stroke-linejoin: round;
        stroke-width: 11px;
      }

      .cls-6 {
        stroke-width: .5px;
      }

      .cls-6, .cls-7 {
        fill: #2ff156;
      }

      .cls-33 {
        fill: #0c1957;
      }

      .cls-34 {
        fill: #00e6fe;
      }

      .cls-35 {
        fill: #02b2d7;
      }

      .cls-9, .cls-36, .cls-14 {
        fill: #fd1956;
      }

      .cls-37 {
        fill: #491457;
      }

      .cls-10, .cls-16 {
        fill: #02dbfc;
      }

      .cls-11 {
        fill: #2a4e61;
        stroke: #1d1d1b;
      }

      .cls-38 {
        fill: #030651;
      }

      .cls-39 {
        fill: #2b4a63;
      }

      .cls-40 {
        fill: #62e2da;
      }

      .cls-12 {
        fill: #fa8d56;
        stroke-width: .75px;
      }

      .cls-41 {
        fill: #4d1656;
      }

      .cls-13 {
        stroke-width: 10px;
      }

      .cls-15 {
        stroke-width: 2px;
      }
    </style>
    <clipPath id="clippath-1">
      <rect class="cls-24" x="1109.24" y="527.69" width="693.09" height="337.6" rx="17.97" ry="17.97"/>
    </clipPath>
  </defs>
  <g id="bg_gauche" data-name="bg gauche">
    <g id="_1" data-name="1">
      <path class="cls-28" d="M871.03,78.92H24.83c-13.72,0-24.83,11.12-24.83,24.83V1336.1c0,30.83,24.99,55.83,55.83,55.83H878.21l-6.37-1159.28-.81-153.72Z"/>
    </g>
    <g id="_1-2" data-name="1">
      <path class="cls-17" d="M876.77,20.09H27.26C12.21,20.09,0,32.3,0,47.35V1274.84c0,32.17,26.08,58.26,58.26,58.26H883.95l-6.37-1159.28-.81-153.72Z"/>
    </g>
    <polygon id="_2" data-name="2" class="cls-37" points="877.49 178.65 577.58 178.65 238.92 373.81 .72 373.81 .69 423.78 240.36 424.04 587.62 226.01 877.49 226.01 877.49 178.65"/>
    <path class="cls-4" d="M818.65,220.27V1297.94H79.77c-26.2,0-47.42-21.28-47.33-47.48l2.72-836.46"/>
  </g>
  <g id="btn_vert" data-name="btn vert">
    <circle class="cls-7" cx="485.02" cy="91.84" r="27.98"/>
    <path class="cls-25" d="M482.15,68.88c22.96,7.17,30.13,34.44,2.87,40.18-8.61,1.43-17.22-1.43-17.22-1.43,0,0,28.7,25.83,43.77-12.2-2.15-38.03-29.42-26.55-29.42-26.55Z"/>
    <circle class="cls-8" cx="485.02" cy="91.84" r="27.98"/>
    <ellipse class="cls-20" cx="474.55" cy="81.1" rx="5.36" ry="3.59" transform="translate(167.04 451.52) rotate(-60)"/>
  </g>
  <g id="btn_jaune" data-name="btn jaune">
    <circle class="cls-2" cx="411.84" cy="91.84" r="27.98"/>
    <path class="cls-32" d="M408.97,68.88c22.96,7.17,30.13,34.44,2.87,40.18-8.61,1.43-17.22-1.43-17.22-1.43,0,0,28.7,25.83,43.77-12.2-2.15-38.03-29.42-26.55-29.42-26.55Z"/>
    <circle class="cls-8" cx="411.84" cy="91.84" r="27.98"/>
    <ellipse class="cls-20" cx="402.8" cy="81.1" rx="5.36" ry="3.59" transform="translate(131.16 389.39) rotate(-60)"/>
  </g>
  <g id="btn_rouge" data-name="btn rouge">
    <circle class="cls-1" cx="335.78" cy="91.84" r="27.98"/>
    <path class="cls-30" d="M332.91,68.88c22.96,7.17,30.13,34.44,2.87,40.18-8.61,1.43-17.22-1.43-17.22-1.43,0,0,28.7,25.83,43.77-12.2-2.15-38.03-29.42-26.55-29.42-26.55Z"/>
    <circle class="cls-8" cx="335.78" cy="91.84" r="27.98"/>
    <ellipse class="cls-20" cx="325.31" cy="81.1" rx="5.36" ry="3.59" transform="translate(92.42 322.28) rotate(-60)"/>
  </g>
  <g id="lentille_bleu" data-name="lentille bleu">
    <path id="Ombre" class="cls-27" d="M294.17,202.33c0,72.91-44.47,132.02-132.02,132.02-94.71,0-132.02-59.11-132.02-132.02S94.98,66.01,167.89,66.01c66.01,0,126.28,63.41,126.28,136.32Z"/>
    <circle class="cls-26" cx="152.83" cy="197.31" r="132.02"/>
    <path class="cls-40" d="M20.81,197.31h22.24s-4.3,109.78,109.06,116.95c113.36,7.17,111.93-119.1,111.93-119.1h20.41c0,15.78,3.98,134.89-130.91,134.89S20.81,197.31,20.81,197.31Z"/>
    <circle class="cls-16" cx="154.98" cy="195.16" r="86.1"/>
    <path class="cls-22" d="M113.39,261.86c10.61,0,51.54,10.61,87.92-33.35,36.38-43.96,13.64-84.89,13.64-84.89,0,0,34.86,60.63,1.52,98.53-33.35,37.9-74.28,30.32-103.08,19.71Z"/>
    <ellipse class="cls-15" cx="153.88" cy="202.05" rx="9.5" ry="9.49" transform="translate(-89.55 129.64) rotate(-36.14)"/>
    <ellipse class="cls-5" cx="123.59" cy="158.91" rx="33.7" ry="20.24" transform="translate(-69.94 103.48) rotate(-36.14)"/>
  </g>
  <g id="bouton_bleu_gauche" data-name="bouton bleu gauche">
    <path class="cls-27" d="M208.07,1051.12c0,28.13-22.81,50.94-50.94,50.94s-62.42-17.78-62.42-45.92,30.98-62.81,58.83-58.83c30.13,4.3,54.53,25.68,54.53,53.81Z"/>
    <circle class="cls-10" cx="140.63" cy="1046.1" r="50.94"/>
  </g>
  <g id="Bouton_vert" data-name="Bouton vert">
    <rect id="vert_ombre_bouton" data-name="vert ombre bouton" class="cls-27" x="245.38" y="1044.66" width="103.32" height="25.83" rx="9" ry="9"/>
    <rect id="bouton_vert" data-name="bouton vert" class="cls-6" x="234.62" y="1033.9" width="103.32" height="25.83" rx="9" ry="9"/>
  </g>
  <g id="bouton_orange" data-name="bouton orange">
    <rect id="orange_ombre_bouton" data-name="orange ombre bouton" class="cls-27" x="381.7" y="1044.66" width="103.32" height="25.83" rx="9" ry="9"/>
    <rect id="bouton_orange-2" data-name="bouton orange" class="cls-12" x="370.94" y="1033.9" width="103.32" height="25.83" rx="9" ry="9"/>
  </g>
  <rect id="Gros_pad_jaune" data-name="Gros pad jaune" class="cls-19" x="91.12" y="1144.39" width="345.83" height="93.27" rx="8.82" ry="8.82"/>
  <g id="croix">
    <rect id="ombre_horizontal" data-name="ombre horizontal" class="cls-27" x="615.61" y="1044.66" width="74.62" height="200.9" rx="7.85" ry="7.85" transform="translate(1798.03 492.2) rotate(90)"/>
    <rect id="ombre_verticale" data-name="ombre verticale" class="cls-27" x="615.61" y="1044.66" width="74.62" height="200.9" rx="7.85" ry="7.85"/>
    <rect id="horizontal" class="cls-33" x="604.13" y="1033.18" width="74.62" height="200.9" rx="7.85" ry="7.85" transform="translate(1775.07 492.2) rotate(90)"/>
    <rect id="vertical" class="cls-33" x="604.13" y="1033.18" width="74.62" height="200.9" rx="7.85" ry="7.85"/>
    <polygon class="cls-11" points="640.72 1049.35 620.62 1072.26 660.81 1072.26 640.72 1049.35"/>
    <polygon class="cls-11" points="725.72 1132.91 702.81 1112.82 702.81 1153 725.72 1132.91"/>
    <polygon class="cls-11" points="642.15 1217.92 662.25 1195.01 622.06 1195.01 642.15 1217.92"/>
    <polygon class="cls-11" points="557.15 1134.35 580.06 1154.44 580.06 1114.26 557.15 1134.35"/>
  </g>
  <g id="compo_pokémon" data-name="compo pokémon">
    <path id="_pokémon_ombre" data-name=" pokémon ombre" class="cls-29" d="M812.2,448.31v470.9c0,30.45-24.68,55.13-55.13,55.13H213.81c-51.66-21.52-90.4-41.61-107.62-87.53V448.31c0-30.45,24.68-55.13,55.13-55.13H757.07c30.45,0,55.13,24.68,55.13,55.13Z"/>
    <path id="cadre_pokémon" data-name="cadre pokémon" class="cls-26" d="M799.28,435.4v470.9c0,30.45-24.68,55.13-55.13,55.13H200.9c-51.66-21.52-90.4-41.61-107.62-87.53V435.4c0-30.45,24.68-55.13,55.13-55.13H744.15c30.45,0,55.13,24.68,55.13,55.13Z"/>
    <circle class="cls-14" cx="238.21" cy="915.52" r="27.98"/>
    <circle class="cls-9" cx="417.58" cy="398.92" r="10.76"/>
    <circle class="cls-9" cx="452.02" cy="398.92" r="10.76"/>
    <g id="micro">
      <line class="cls-3" x1="541.7" y1="893.27" x2="765.56" y2="893.27"/>
      <line class="cls-3" x1="542.42" y1="915.52" x2="766.28" y2="915.52"/>
      <line class="cls-3" x1="542.42" y1="938.48" x2="766.28" y2="938.48"/>
    </g>
    <rect id="ombre_haut_ecran" data-name="ombre haut ecran" class="cls-35" x="114.8" y="434.8" width="665.83" height="441.97" rx="12" ry="12"/>
    <rect id="ecran" class="cls-21" x="114.8" y="456.32" width="664.39" height="416.14" rx="16.21" ry="16.21"/>
    <path id="reflet_2" data-name="reflet 2" class="cls-34" d="M483.3,872.47l295.89-322.06v-93.78c0-.17-.14-.3-.3-.3h-60.39l-382.32,416.14h147.13Z"/>
    <polygon id="reflet_1" data-name="reflet 1" class="cls-34" points="114.8 707.16 393.44 457.76 216.95 457.76 114.8 549.19 114.8 707.16"/>
  </g>
  <g id="barre_milieu" data-name="barre milieu">
    <polygon class="cls-28" points="876.77 20.09 892.32 8.61 896.86 1302.96 876.77 1320.18 876.77 20.09"/>
    <polygon class="cls-18" points="896.86 1308.7 921.26 1294.35 918.39 0 892.56 8.61 896.86 1308.7"/>
    <polygon class="cls-17" points="921.26 1294.35 945.65 1297.22 947.09 0 918.39 0 921.26 1294.35"/>
    <path class="cls-28" d="M947.09,0s17.94,0,38.53,10.92c3.68,1.95,5.95,5.8,5.95,9.97-.08,104.85-1.43,1302.16-1.43,1302.16,0,0-20.09-25.83-44.48-25.83,0-51.66,1.43-1297.22,1.43-1297.22Z"/>
    <ellipse class="cls-28" cx="933.45" cy="1320.18" rx="56.68" ry="27.26"/>
  </g>
  <g id="bg_droit" data-name="bg droit">
    <path id="ombre_bg_droit" data-name="ombre bg droit" class="cls-37" d="M994.44,249.69h284.13l332.62,187.94c13.36,7.55,28.45,11.52,43.8,11.52h265.02v886.05c0,32.91-26.68,59.6-59.6,59.6H994.44V249.69Z"/>
    <path id="bg_droit-2" data-name="bg droit" class="cls-36" d="M994.44,176.5h280.56c2.33,0,4.63,.6,6.66,1.75l329.52,186.19c13.36,7.55,28.45,11.52,43.8,11.52h256.52c4.69,0,8.49,3.8,8.49,8.49v937.16H994.44V176.5Z"/>
    <path class="cls-23" d="M1272.83,233.9l348.7,196.59,255.43,2.87v804.28c0,24.18-19.61,43.79-43.79,43.79h-791.37V274.15c0-22.23,18.02-40.25,40.25-40.25h190.78Z"/>
    <polyline class="cls-23" points="1272.83 233.9 1625.11 432.65 1876.95 433.36"/>
  </g>
  <rect class="cls-27" x="988.7" y="176.5" width="22.96" height="1145.11"/>
  <g id="screen_info" data-name="screen info">
    <rect class="cls-38" x="1109.24" y="473.54" width="693.09" height="391.75" rx="17.97" ry="17.97"/>
    <rect class="cls-33" x="1109.24" y="527.69" width="693.09" height="337.6" rx="17.97" ry="17.97"/>
    <g class="cls-31">
      <polygon class="cls-39" points="1633 518.13 1482.33 868.48 1627.26 865.29 1779.37 521.32 1633 518.13"/>
      <polygon class="cls-39" points="1437.85 518.13 1287.17 868.48 1314.44 865.29 1466.55 521.32 1437.85 518.13"/>
      <polygon class="cls-39" points="1288.61 518.13 1137.94 868.48 1238.39 865.29 1390.49 521.32 1288.61 518.13"/>
    </g>
  </g>
  <rect id="Gros_pad_jaune-2" data-name="Gros pad jaune" class="cls-33" x="1482.33" y="1097.76" width="285.56" height="93.27" rx="8.82" ry="8.82"/>
  <rect id="Gros_pad_jaune-3" data-name="Gros pad jaune" class="cls-33" x="1119.28" y="1097.76" width="288.43" height="93.27" rx="8.82" ry="8.82"/>
  <g id="bouton_blanc_droit" data-name="bouton blanc droit">
    <rect id="Gros_pad_jaune-4" data-name="Gros pad jaune" class="cls-41" x="1128.61" y="943.5" width="208.07" height="61.7" rx="8.82" ry="8.82"/>
    <rect id="Gros_pad_jaune-5" data-name="Gros pad jaune" class="cls-26" x="1117.85" y="932.74" width="208.07" height="61.7" rx="8.82" ry="8.82"/>
  </g>
  <g id="bouton_blanc_gauche" data-name="bouton blanc gauche">
    <rect id="Gros_pad_jaune-6" data-name="Gros pad jaune" class="cls-41" x="1362.51" y="943.5" width="208.07" height="61.7" rx="8.82" ry="8.82"/>
    <rect id="Gros_pad_jaune-7" data-name="Gros pad jaune" class="cls-26" x="1351.75" y="932.74" width="208.07" height="61.7" rx="8.82" ry="8.82"/>
  </g>
  <g id="btn_jaune-2" data-name="btn jaune">
    <circle class="cls-2" cx="1769.33" cy="975.78" r="40.18"/>
    <path class="cls-32" d="M1765.21,942.82c32.97,10.3,43.27,49.45,4.12,57.69-12.36,2.06-24.73-2.06-24.73-2.06,0,0,41.21,37.09,62.84-17.51-3.09-54.6-42.24-38.12-42.24-38.12Z"/>
    <circle class="cls-8" cx="1769.33" cy="975.78" r="40.18"/>
    <ellipse class="cls-20" cx="1753.54" cy="960" rx="5.74" ry="4.3" transform="translate(45.39 1998.61) rotate(-60)"/>
  </g>
  <line class="cls-13" x1="1750.67" y1="896.86" x2="1809.51" y2="896.86"/>
  <line class="cls-13" x1="1670.31" y1="896.86" x2="1729.15" y2="896.86"/>
</svg>